PathFileType	4	(X/Y/Z)	..\data\2015026\dynamic\2015026_C4_04.trc
DataRate	CameraRate	NumFrames	NumMarkers	Units	OrigDataRate	OrigDataStartFrame	OrigNumFrames
100.000000	100.000000	4	48	mm	100.000000	80	160
Frame#	Time	L_IAS			L_IPS			R_IPS			R_IAS			L_FTC			L_FLE			L_FAX			L_TTC			L_FAL			L_FCC			L_FM1			L_FM2			L_FM5			R_FTC			R_FLE			R_FAX			R_TTC			R_FAL			R_FCC			R_FM1			R_FM2			R_FM5			CV7			TV10			SXS			SJN			L_SIA			L_SRS			L_SAA			L_SAE			L_HLE			L_HME			L_UOA			L_RSP			L_UHE			L_HM2			L_HM5			R_SIA			R_SRS			R_SAA			R_SAE			R_HLE			R_HME			R_UOA			R_RSP			R_UHE			R_HM2			R_HM5			
		X1	Y1	Z1	X2	Y2	Z2	X3	Y3	Z3	X4	Y4	Z4	X5	Y5	Z5	X6	Y6	Z6	X7	Y7	Z7	X8	Y8	Z8	X9	Y9	Z9	X10	Y10	Z10	X11	Y11	Z11	X12	Y12	Z12	X13	Y13	Z13	X14	Y14	Z14	X15	Y15	Z15	X16	Y16	Z16	X17	Y17	Z17	X18	Y18	Z18	X19	Y19	Z19	X20	Y20	Z20	X21	Y21	Z21	X22	Y22	Z22	X23	Y23	Z23	X24	Y24	Z24	X25	Y25	Z25	X26	Y26	Z26	X27	Y27	Z27	X28	Y28	Z28	X29	Y29	Z29	X30	Y30	Z30	X31	Y31	Z31	X32	Y32	Z32	X33	Y33	Z33	X34	Y34	Z34	X35	Y35	Z35	X36	Y36	Z36	X37	Y37	Z37	X38	Y38	Z38	X39	Y39	Z39	X40	Y40	Z40	X41	Y41	Z41	X42	Y42	Z42	X43	Y43	Z43	X44	Y44	Z44	X45	Y45	Z45	X46	Y46	Z46	X47	Y47	Z47	X48	Y48	Z48	

81	0.8	833.4400024414065	956.2025146484377	-315.8398742675782	643.1201782226564	950.2314453125002	-260.3705749511719	645.3198242187501	962.331726074219	-147.2074584960938	834.8527832031252	956.833679199219	-92.69365692138673	766.7760620117189	868.291687011719	-379.7672729492188	882.6744384765627	468.4918823242189	-350.1509399414063	840.3880615234377	438.9580078125001	-348.1859130859376	899.0481567382815	394.9171752929689	-311.7931823730469	627.0692749023439	175.2708892822266	-318.7644042968751	570.6043701171876	157.7762908935547	-271.2395019531251	720.2567749023439	45.79479217529298	-271.7362365722657	721.7789306640626	58.33009719848634	-321.4310607910157	674.2667236328126	69.22422027587892	-361.8304138183594	750.8768920898439	868.7506103515627	-30.86457061767579	807.032653808594	470.5732727050782	-108.5043563842774	777.4158325195315	408.7139587402345	-105.9107055664063	833.640563964844	399.1162414550782	-156.5640869140625	757.4570922851564	62.25072479248048	-129.7662506103516	712.7163085937501	20.08088493347168	-171.2555847167969	908.5881958007815	29.17033195495606	-210.5351257324219	909.861511230469	37.89806365966798	-155.1370849609375	868.4219970703127	18.38055992126465	-105.2258834838867	685.7673950195314	1443.078002929688	-206.4800567626954	610.4816284179689	1203.458984375	-217.6679229736329	830.6721191406252	1138.824829101563	-219.9604949951172	803.8215942382815	1355.573486328125	-216.6414489746094	608.3441772460939	1241.6162109375	-297.8494262695313	637.6444091796876	1373.510986328125	-295.4689941406251	680.8364257812501	1383.739013671875	-376.8857116699219	723.3066406250001	1381.017944335938	-395.166961669922	719.0726928710939	1072.943115234375	-467.8658752441407	675.4765014648439	1062.718872070313	-399.1644897460939	676.5037231445314	1058.298950195313	-447.2599487304689	802.567321777344	840.7209472656252	-417.2165832519532	743.7974243164064	840.819519042969	-468.3699035644532	824.4495849609377	759.5731201171876	-420.9639892578126	737.2880249023439	766.6895141601564	-469.7398681640626	607.0111083984376	1240.487182617188	-134.9626159667969	637.4946899414064	1370.320922851563	-163.3092346191407	682.4805297851564	1383.905517578125	-58.00877761840822	735.3936157226564	1379.1083984375	-34.38198471069337	698.7973022460939	1067.165893554688	18.55395889282227	683.9115600585939	1049.613647460938	-57.3706741333008	669.8091430664064	1043.729370117188	-12.57254695892334	802.1910400390627	835.9250488281252	32.76546859741212	724.1798095703126	824.7625122070315	30.79835510253907	820.6660766601565	751.6598510742189	48.43141174316408	720.9680786132814	751.9886474609376	35.70735931396485	
82	0.8100000000000001	845.1372680664065	957.260681152344	-314.6231079101563	654.9098510742189	951.1506347656252	-260.0533752441407	656.8096313476564	962.9072265625002	-146.8519134521485	846.2681884765627	957.167175292969	-91.53302001953126	778.8797607421877	869.491394042969	-379.1882019042969	902.6452636718752	471.4468994140626	-348.7718505859376	861.4948730468752	439.8353271484376	-346.6553649902344	921.6560668945315	398.4998474121095	-310.1102905273438	659.4840087890626	166.7440948486328	-316.2868041992188	603.6778564453126	146.1027221679688	-268.9339599609376	759.9924316406251	42.9642562866211	-269.7444152832032	760.9648437500001	56.00011062622072	-319.4910888671876	712.8015747070314	64.23480224609376	-359.8069763183594	761.4198608398439	868.922302246094	-30.36815643310548	808.912780761719	470.584686279297	-107.9347152709961	778.6151123046877	408.9411926269532	-105.4914245605469	835.0645141601565	398.8892211914064	-155.9618835449219	757.2506713867189	62.2979202270508	-129.5941467285157	712.6427001953126	20.111234664917	-171.3257751464844	908.5262451171877	29.94203758239747	-210.0934448242188	909.699401855469	37.98447036743165	-154.7349243164063	868.3577270507815	18.21424293518067	-105.0691070556641	697.2823486328126	1443.856689453125	-205.5193176269532	622.2573852539064	1204.094970703125	-216.4163665771485	842.476989746094	1139.578979492188	-219.0631256103516	815.339538574219	1356.4345703125	-215.7158508300782	619.9075317382814	1242.139282226563	-296.4289550781251	649.0620117187501	1374.109741210938	-294.2091064453126	691.9716186523439	1384.407958984375	-375.6712036132813	734.3161010742189	1381.725219726563	-394.2115478515626	726.8514404296876	1073.585693359375	-466.556854248047	683.3855590820314	1064.037475585938	-397.6548461914064	684.0103149414064	1059.517211914063	-445.7139892578126	807.433532714844	840.3125000000002	-416.106414794922	748.3807373046876	841.2309570312502	-467.0360717773439	828.1106567382815	758.8453979492189	-419.8783569335939	740.7864990234376	767.2061157226564	-468.3655090332032	618.9859619140626	1241.236450195313	-133.4920959472657	649.1879882812501	1371.011596679688	-162.155014038086	694.2152099609376	1384.908447265625	-56.97604370117189	747.2915039062501	1380.245361328125	-33.42027664184571	713.9057006835939	1068.201171875	20.81057167053223	698.7954711914064	1050.284301757813	-55.01802062988283	685.0576171875001	1044.096435546875	-10.05431270599365	821.660339355469	838.8527832031252	34.78808593750001	743.7870483398439	826.2636718750002	33.42405319213868	841.816833496094	755.0366821289064	50.76332473754884	742.0546875000001	753.3674926757814	38.51946258544923	
83	0.8200000000000001	856.8684082031252	957.9003906250002	-313.4536437988282	666.7399291992189	951.7147216796877	-259.8597717285157	668.3331909179689	963.189147949219	-146.6192779541016	857.7496337890627	957.2849121093752	-90.39479064941408	791.2071533203127	870.2568359375002	-378.6434326171876	922.0640258789065	473.9878234863282	-347.2561645507813	882.1345825195315	440.2506713867189	-345.0431518554688	943.782165527344	401.7689208984376	-308.2810668945313	692.6821899414064	157.6335754394532	-314.0116271972657	637.6902465820314	133.9416961669922	-266.8753356933594	800.0684814453127	40.12585067749024	-267.5490112304688	800.5174560546877	53.48302078247072	-317.3351135253907	751.9559936523439	58.93556976318361	-357.6807861328126	771.8494262695315	868.9393310546877	-29.94363021850587	810.6286621093752	470.616912841797	-107.3356018066407	779.7655029296877	409.2150268554689	-105.0664978027344	836.4431152343752	398.6604614257814	-155.3523406982422	757.0513305664064	62.36925125122072	-129.4203033447266	712.6052246093751	20.15222930908203	-171.4103088378907	908.4791259765627	30.71629714965821	-209.6248168945313	909.5662841796877	38.08346176147462	-154.3165435791016	868.3081054687502	18.07169914245606	-104.8814315795899	708.7831420898439	1444.3046875	-204.5589141845704	634.0260009765626	1204.418701171875	-215.2816162109376	854.3657226562502	1140.052978515625	-218.1654205322266	826.8544921875002	1356.9970703125	-214.8161621093751	631.4774780273439	1242.381958007813	-295.1149291992188	660.4899902343751	1374.419799804688	-292.9848022460938	703.1325683593751	1384.801147460938	-374.4915466308594	745.3471679687501	1382.146728515625	-393.2821350097657	734.6798095703126	1073.978637695313	-465.2884521484376	691.3151855468751	1065.09765625	-396.2027587890626	691.6155395507814	1060.465087890625	-444.2322998046876	812.4006958007815	839.7467041015627	-414.9789123535157	753.0839233398439	841.4313964843752	-465.6723022460939	831.9357910156252	758.0071411132814	-418.7414550781251	744.4619750976564	767.5066528320314	-466.9322204589845	630.9637451171876	1241.6259765625	-132.1355895996094	660.8758544921876	1371.370849609375	-161.0419464111328	705.9293212890626	1385.52001953125	-55.9623489379883	759.1590576171876	1381.006225585938	-32.48098754882813	728.9300537109376	1068.895141601563	23.03651809692383	713.6353759765626	1050.623046875	-52.68444061279298	700.2598266601564	1044.120971679688	-7.564332962036135	841.1171875000002	841.5532226562502	36.75247955322266	763.4223632812501	827.5429687500002	35.97736358642579	862.9742431640627	758.2214355468751	52.92903518676759	763.1981811523439	754.5347290039064	41.13397598266602	
84	0.8300000000000001	868.6223144531252	958.1262207031252	-312.3508605957032	678.6012573242189	951.908386230469	-259.7593994140626	679.9017333984376	963.1674804687502	-146.4826354980469	869.3093261718752	957.1697998046877	-89.29343414306642	803.7242431640627	870.5889892578127	-378.1231079101563	940.9141845703127	476.0643920898439	-345.6033935546876	902.3098144531252	440.1858520507814	-343.3403015136719	965.3878173828127	404.6879272460939	-306.2913208007813	726.6816406250001	148.1448669433594	-311.9316406250001	672.6568603515626	121.5147171020508	-265.0448303222657	840.4766845703127	37.40770721435548	-265.1949462890626	840.4168090820315	50.93148803710939	-315.0092773437501	791.7012329101565	53.53403472900392	-355.4802856445313	782.203796386719	868.8042602539065	-29.58330154418946	812.2573852539065	470.6664123535157	-106.7074432373047	780.9283447265627	409.5322875976564	-104.6347351074219	837.8274536132815	398.4198303222657	-154.7302551269532	756.8614501953126	62.46331787109376	-129.2498931884766	712.5972290039064	20.20973587036133	-171.501953125	908.445007324219	31.45723533630372	-209.1448669433594	909.4639282226565	38.17810821533204	-153.8961791992188	868.269226074219	17.94415664672852	-104.6684875488282	720.2842407226564	1444.404541015625	-203.6038208007813	645.7857666015626	1204.420166015625	-214.2590942382813	866.3032836914065	1140.2099609375	-217.2933044433594	838.377868652344	1357.236206054688	-213.9522857666016	643.0523071289064	1242.333740234375	-293.9101562500001	671.9360351562501	1374.430297851563	-291.8055114746094	714.3286743164064	1384.904052734375	-373.3568725585938	756.4102783203126	1382.263305664063	-392.386688232422	742.5883789062501	1074.101684570313	-464.0571289062501	699.2991333007814	1065.873779296875	-394.8059082031251	699.3544921875001	1061.120849609375	-442.8136291503907	817.4944458007815	838.9937133789065	-413.835906982422	757.9394531250001	841.3972778320315	-464.2935180664064	835.9353027343752	757.0184326171876	-417.5484924316407	748.3328247070314	767.5665893554689	-465.4514160156251	642.9470825195314	1241.642456054688	-130.8951110839844	672.5695800781251	1371.38623046875	-159.9681701660157	717.6479492187501	1385.715209960938	-54.9652786254883	771.0166015625002	1381.3623046875	-31.5712070465088	743.8775634765626	1069.22119140625	25.2306022644043	728.4185180664064	1050.600219726563	-50.3652801513672	715.4161987304689	1043.779052734375	-5.10025453567505	860.5411376953127	844.0018310546877	38.65280151367188	783.0686645507815	828.5657958984377	38.45023345947266	884.1225585937502	761.1921386718751	54.92881393432619	784.3782958984377	755.4606323242189	43.56238555908204	
